<svg xmlns="http://www.w3.org/2000/svg" width="2401.486" height="1490.337" viewBox="0 0 2401.486 1490.337">
    <g transform="translate(16 16)">
        <path d="M1636.075,0,0,904.44l722.813,388.7L2364.365,388.756Z" transform="translate(4.966 0)" fill="none"
              stroke="#ffffff" stroke-linecap="round" stroke-linejoin="round" stroke-width="32"/>
        <path d="M141.936,744.2V911.221l725.9,383.968L2511.423,387.63V226.236" transform="translate(-141.936 163.149)"
              fill="none" stroke="#ffffff" stroke-linecap="round" stroke-linejoin="round" stroke-width="32"/>
        <path d="M663.845,875.42v163.964" transform="translate(63.482 417.72)" fill="none" stroke="#ffffff"
              stroke-linecap="round" stroke-width="32"/>
        <g transform="translate(182.649 71.7)">
            <path d="M273,927.986S627.739,688.464,875.031,546.7s235.863-52.609,387.138-185.766,199.58-215.6,336.2-361.985"
                  transform="translate(-273 1.05)" fill="none" stroke="#ffffff" stroke-linecap="round"
                  stroke-width="24"/>
            <path d="M865.212,569.463C754.7,551.347,723,623.361,760.135,638.307s157.615,16.3,211.965-34.422S936.772,474.33,848.906,487.939,678.75,533.231,618.461,663.394,472.5,786.865,407,827.279"
                  transform="translate(-220.258 192.9)" fill="none" stroke="#ffffff" stroke-linecap="round"
                  stroke-width="24"/>
            <path d="M1718.866,33C1572.4,83.135,1436.75,61.666,1318.906,268.517S1168.311,467.7,1072.24,577.894,874.16,652.067,820,771.611"
                  transform="translate(-57.706 14.452)" fill="none" stroke="#ffffff" stroke-linecap="round"
                  stroke-linejoin="round" stroke-width="24"/>
            <path d="M492,1065.662c90.583-26.478,153.295-126.817,352.578-163.05s352.578-101.732,515.628-241.091,151.9-165.837,222.974-310.771S1783.858,157.041,1987.323,79"
                  transform="translate(-186.803 32.557)" fill="none" stroke="#ffffff" stroke-width="24"/>
            <path d="M1857.313,155.987c-54.7,31.007-216.045-22.792-247.33,100.357s-92.52,74.161-189.528,203.464S1302,574.082,1302,670.239"
                  transform="translate(132.005 62.859)" fill="none" stroke="#ffffff" stroke-width="24"/>
        </g>
    </g>
</svg>